<svg width="1920" height="1920" viewBox="0 0 1920 1920" fill="none" xmlns="http://www.w3.org/2000/svg">
<rect width="1920" height="1920" fill="#C4B2F6"/>
<mask id="mask0_525_21" style="mask-type:alpha" maskUnits="userSpaceOnUse" x="0" y="0" width="1920" height="1920">
<rect width="1920" height="1920" fill="#C4B2F6"/>
</mask>
<g mask="url(#mask0_525_21)">
<path fill-rule="evenodd" clip-rule="evenodd" d="M3162.26 728.521C3304.27 528.027 3577.56 476.748 3779.06 618.052C3980.56 759.356 4023.92 1032.68 3881.91 1233.18C3739.89 1433.67 3466.61 1484.95 3265.11 1343.65C3063.6 1202.34 3020.25 929.015 3162.26 728.521ZM2767.38 1509.04L3266.33 1858.94L1521.59 4322.15L1022.63 3972.25L2767.38 1509.04ZM328.869 334.88C693.221 225.999 1077.72 281.288 1379.97 493.244C1845.34 819.589 1947.09 1476.82 1487.24 2126.03L459.325 3577.23L-39.6296 3227.33L974.757 1795.23C1194.54 1484.94 1127.65 1052.22 815.806 833.534C503.958 614.849 71.8911 697.679 -147.893 1007.97L-1162.28 2440.06L-1666.03 2086.8L78.7127 -376.405L582.466 -23.1444L328.869 334.88ZM3929.78 2372.28L3605.17 2830.56L5015.68 3819.69L4694.46 4273.18L4166.72 3903.1C3461.46 3408.54 2837.58 3478.31 2485.93 3974.78C2171.47 4418.73 2323.06 4975.16 2778.84 5294.78C3066.7 5496.64 3446.72 5598.8 3842.37 5476.15L3595.54 5824.62L4089.7 6171.15L5834.44 3707.94L3929.78 2372.28ZM3216.94 4980.4C2957.87 4798.72 2865.99 4512.8 3014.76 4302.76C3166.92 4087.94 3452.87 3988.38 3956.62 4341.64L4417.19 4664.62C4035.11 5204.05 3547.98 5212.54 3216.94 4980.4ZM7298.28 7226.86C7509.2 7131.84 9324.56 6332.88 9497.42 6261.19L10049.2 6648.09L8304.4 9111.3L7805.45 8761.41L9049.76 7004.7C9046.32 7002.29 7981.92 7469.63 7292.57 7772.3L7292.09 7772.51C7020.88 7891.59 6807.8 7985.14 6740.37 8014.51L6241.42 7664.62L7489.11 5903.14C7484.31 5899.77 5461.41 6788.97 5176.34 6917.72L4672.58 6564.46L6417.33 4101.26L6921.08 4454.51L5834.27 5978.72L5730.87 6134.84C5922.05 6047.42 7928.59 5161.04 7933.39 5164.4L8480.32 5547.94C8485.12 5551.3 7301.66 7222.09 7298.28 7226.86ZM-1054.34 -1883.43C-1101.22 -1959.17 -1176.89 -2055.1 -1296.83 -2139.21C-1474.34 -2263.69 -1700.29 -2279.24 -1849.07 -2069.2L-2011.37 -1840.06L-1008.74 -1136.96L-509.781 -787.065L-2254.53 1676.14L-2753.48 1326.25L-1316.43 -702.558L-2319.07 -1405.66L-3756.12 623.144L-4255.07 273.248L-2818.02 -1755.56L-3197.04 -2021.34L-2889.34 -2455.75L-2510.32 -2189.96L-2341.26 -2428.64C-2023.42 -2877.37 -1488.41 -2973.74 -1066.21 -2677.68C-907.891 -2566.65 -791.012 -2427.53 -736.502 -2332.15L-1054.34 -1883.43Z" fill="#FCD5DB"/>
</g>
</svg>
