<svg width="101" height="28" viewBox="0 0 101 28" fill="none" xmlns="http://www.w3.org/2000/svg">
<path fill-rule="evenodd" clip-rule="evenodd" d="M43.0327 2.82703C43.0327 1.26472 44.2602 0 45.8225 0C47.3848 0 48.6123 1.26472 48.6123 2.82703C48.6123 4.38934 47.3848 5.65406 45.8225 5.65406C44.2602 5.65406 43.0327 4.38934 43.0327 2.82703ZM43.851 8.3323H47.7196V27.5264H43.851V8.3323ZM26.9107 11.1221C28.3986 9.22505 30.5932 8.10912 32.9367 8.10912C36.5449 8.10912 39.4835 11.1593 39.4835 16.2182V27.5264H35.6149V16.367C35.6149 13.9492 33.6806 11.9405 31.2628 11.9405C28.8449 11.9405 26.9107 13.9492 26.9107 16.367V27.5264H23.0049L23.0049 8.3323H26.9107V11.1221ZM53.04 8.58275V12.1537H63.9761V15.6875H59.8844C54.4163 15.6875 51.4405 18.3286 51.4405 22.1971C51.4405 25.6565 54.2675 28 57.8013 28C60.0332 28 62.3766 27.1444 63.9761 25.0614V27.7768H67.8075V8.58275L53.04 8.58275ZM58.9172 24.7638C56.9086 24.7638 55.3834 23.6107 55.3834 21.974C55.3834 20.3001 56.4994 18.7377 60.4051 18.7377H63.9761C63.9761 22.9411 61.4839 24.7638 58.9172 24.7638ZM88.3024 21.5588C89.0464 20.2941 95.5188 9.50669 96.1511 8.50235H100.429V27.6964H96.5603V14.0076C96.5336 14.0076 92.7318 20.3314 90.2715 24.4239C89.304 26.0332 88.5439 27.2974 88.3024 27.6964H84.4338V13.9704C84.3966 13.9704 77.1803 25.9853 76.1759 27.6964L72.2702 27.6964V8.50235H76.1759L76.1387 20.4056L76.1759 21.596C76.8455 20.4428 83.9875 8.50235 84.0247 8.50235H88.2652C88.3024 8.50235 88.3024 21.5216 88.3024 21.5588ZM11.6057 4.62306C11.0849 4.39987 10.341 4.17669 9.41104 4.17669C8.03472 4.17669 6.8072 4.92064 6.8072 6.55735V8.34284L14.581 8.34284H18.4495L18.4495 27.5369H14.581L14.581 11.7278L6.8072 11.7278L6.8072 27.5369H2.93863L2.93863 11.7278H0L0 8.34284H2.93863V6.48295C2.93863 2.98636 5.35648 0.531304 8.62989 0.531304C9.85741 0.531304 10.9733 0.828885 11.6057 1.12647V4.62306Z" fill="#F8F1EC"/>
</svg>
